<?xml version="1.0" standalone="no"?>
<!DOCTYPE svg PUBLIC "-//W3C//DTD SVG 20010904//EN"
 "http://www.w3.org/TR/2001/REC-SVG-20010904/DTD/svg10.dtd">
<svg version="1.0" xmlns="http://www.w3.org/2000/svg"
 width="250.000000pt" height="145.000000pt" viewBox="0 0 250.000000 145.000000"
 preserveAspectRatio="xMidYMid meet">

<g transform="translate(0.000000,145.000000) scale(0.100000,-0.100000)"
fill="#000000" stroke="none">
<path d="M1220 1410 c0 -5 5 -10 11 -10 5 0 7 5 4 10 -3 6 -8 10 -11 10 -2 0
-4 -4 -4 -10z"/>
<path d="M1300 1350 c0 -6 7 -10 15 -10 8 0 15 2 15 4 0 2 -7 6 -15 10 -8 3
-15 1 -15 -4z"/>
<path d="M1230 1255 c0 -9 9 -15 21 -15 18 0 19 2 9 15 -7 8 -16 15 -21 15 -5
0 -9 -7 -9 -15z"/>
<path d="M1036 1242 c-3 -5 17 -22 44 -38 27 -16 50 -33 50 -37 0 -5 -19 -32
-43 -60 -77 -93 -77 -94 -13 -58 33 18 79 45 103 61 l44 27 -74 56 c-70 54
-100 67 -111 49z"/>
<path d="M911 1181 c-19 -12 2 -95 36 -139 26 -34 26 -34 46 -14 20 20 20 20
-6 54 -14 18 -28 50 -32 71 -7 37 -18 44 -44 28z"/>
<path d="M1049 993 c-16 -18 -7 -25 43 -30 47 -5 128 12 128 27 0 6 -3 10 -7
10 -5 0 -41 2 -80 4 -53 2 -76 -1 -84 -11z"/>
<path d="M404 958 c-24 -27 -44 -72 -43 -96 0 -11 4 -9 10 8 6 14 22 37 35 52
14 14 24 34 22 43 -3 14 -6 13 -24 -7z"/>
<path d="M600 855 c0 -9 5 -15 11 -13 6 2 11 8 11 13 0 5 -5 11 -11 13 -6 2
-11 -4 -11 -13z"/>
<path d="M600 740 c0 -57 4 -80 13 -80 8 0 12 23 12 80 0 57 -4 80 -12 80 -9
0 -13 -23 -13 -80z"/>
<path d="M685 740 c0 -57 4 -80 13 -80 8 0 12 23 12 80 0 57 -4 80 -12 80 -9
0 -13 -23 -13 -80z"/>
<path d="M790 740 c0 -47 4 -80 10 -80 6 0 10 33 10 80 0 47 -4 80 -10 80 -6
0 -10 -33 -10 -80z"/>
<path d="M850 809 c0 -5 5 -7 10 -4 6 3 10 8 10 11 0 2 -4 4 -10 4 -5 0 -10
-5 -10 -11z"/>
<path d="M910 740 c0 -47 4 -80 10 -80 6 0 10 33 10 80 0 47 -4 80 -10 80 -6
0 -10 -33 -10 -80z"/>
<path d="M1167 808 c-22 -18 -39 -66 -31 -92 8 -28 34 -56 51 -56 9 0 7 6 -7
20 -24 24 -27 86 -4 118 17 25 15 28 -9 10z"/>
<path d="M1255 810 c3 -5 8 -10 11 -10 2 0 4 5 4 10 0 6 -5 10 -11 10 -5 0 -7
-4 -4 -10z"/>
<path d="M1332 797 c-34 -36 -27 -115 12 -130 12 -5 12 -2 0 21 -18 34 -18 70
0 105 18 33 16 34 -12 4z"/>
<path d="M1423 803 c26 -29 27 -102 1 -127 -8 -9 -11 -16 -5 -16 18 0 51 52
51 80 0 29 -34 80 -52 80 -6 0 -4 -8 5 -17z"/>
<path d="M1512 738 l2 -83 5 70 6 70 32 -69 31 -68 16 30 c20 38 21 52 2 26
-13 -18 -16 -15 -42 44 -38 89 -54 83 -52 -20z"/>
<path d="M1646 804 c-8 -22 -8 -26 4 -19 6 4 10 -18 10 -59 0 -37 4 -66 10
-66 6 0 10 33 10 80 0 62 -3 80 -14 80 -8 0 -17 -7 -20 -16z"/>
<path d="M1740 740 c0 -47 4 -80 10 -80 6 0 10 15 11 33 0 17 1 53 2 80 1 32
-2 47 -10 47 -9 0 -13 -23 -13 -80z"/>
<path d="M1804 804 c22 -21 20 -40 -6 -58 -25 -18 -8 -22 23 -6 33 18 19 80
-19 80 -10 0 -10 -3 2 -16z"/>
<path d="M1885 746 c-36 -79 -46 -113 -19 -63 12 21 22 27 49 27 29 0 36 -4
41 -25 3 -14 12 -25 20 -25 8 0 14 2 14 4 0 6 -60 150 -65 154 -3 3 -21 -30
-40 -72z m55 -13 c0 -7 -11 -13 -25 -13 -28 0 -30 8 -13 45 l12 26 13 -23 c7
-13 12 -29 13 -35z"/>
<path d="M2041 803 c8 -9 28 -33 45 -52 18 -20 43 -49 57 -66 l25 -30 4 83 c1
45 0 82 -4 82 -4 0 -8 -27 -10 -60 l-3 -60 -48 60 c-27 33 -56 60 -64 60 -13
0 -13 -2 -2 -17z"/>
<path d="M2250 776 c20 -29 30 -57 30 -80 0 -23 5 -36 13 -36 9 0 12 10 9 30
-3 22 5 42 32 80 20 27 30 50 23 50 -6 0 -20 -18 -30 -40 -10 -22 -22 -40 -27
-40 -5 0 -17 18 -27 40 -11 24 -25 40 -36 40 -15 0 -14 -6 13 -44z"/>
<path d="M660 544 c0 -27 4 -43 10 -39 6 3 10 24 10 46 0 21 -4 39 -10 39 -5
0 -10 -21 -10 -46z"/>
<path d="M1050 545 c0 -25 5 -45 10 -45 6 0 10 20 10 45 0 25 -4 45 -10 45 -5
0 -10 -20 -10 -45z"/>
<path d="M1170 545 c0 -25 5 -45 10 -45 6 0 10 20 10 45 0 25 -4 45 -10 45 -5
0 -10 -20 -10 -45z"/>
<path d="M1220 545 c0 -25 5 -45 10 -45 6 0 10 20 10 45 0 25 -4 45 -10 45 -5
0 -10 -20 -10 -45z"/>
<path d="M1730 545 c0 -25 5 -45 10 -45 6 0 10 20 10 45 0 25 -4 45 -10 45 -5
0 -10 -20 -10 -45z"/>
<path d="M1910 545 c0 -25 5 -45 10 -45 6 0 10 20 10 45 0 25 -4 45 -10 45 -5
0 -10 -20 -10 -45z"/>
<path d="M2140 545 c0 -25 5 -45 10 -45 6 0 10 20 10 45 0 25 -4 45 -10 45 -5
0 -10 -20 -10 -45z"/>
<path d="M1408 568 c-6 -16 3 -68 11 -68 4 0 5 18 3 40 -4 41 -8 48 -14 28z"/>
<path d="M840 535 c0 -19 4 -35 8 -35 4 0 6 16 4 35 -2 19 -6 35 -8 35 -2 0
-4 -16 -4 -35z"/>
<path d="M512 530 c0 -19 2 -27 5 -17 2 9 2 25 0 35 -3 9 -5 1 -5 -18z"/>
<path d="M550 530 c0 -16 2 -30 4 -30 2 0 6 14 8 30 3 17 1 30 -4 30 -4 0 -8
-13 -8 -30z"/>
<path d="M580 530 c0 -16 5 -30 10 -30 6 0 10 14 10 30 0 17 -4 30 -10 30 -5
0 -10 -13 -10 -30z"/>
<path d="M627 553 c-10 -9 -9 -41 2 -47 4 -3 8 8 7 24 -1 17 -1 30 -2 30 0 0
-4 -3 -7 -7z"/>
<path d="M700 536 c0 -14 5 -28 10 -31 6 -4 10 7 10 24 0 17 -4 31 -10 31 -5
0 -10 -11 -10 -24z"/>
<path d="M742 530 c0 -19 2 -27 5 -17 2 9 2 25 0 35 -3 9 -5 1 -5 -18z"/>
<path d="M780 545 c0 -8 9 -19 20 -25 11 -6 20 -7 20 -3 0 5 -9 16 -20 26 -16
14 -20 14 -20 2z"/>
<path d="M880 530 c0 -16 5 -30 10 -30 6 0 10 14 10 30 0 17 -4 30 -10 30 -5
0 -10 -13 -10 -30z"/>
<path d="M952 530 c0 -19 2 -27 5 -17 2 9 2 25 0 35 -3 9 -5 1 -5 -18z"/>
<path d="M1010 536 c0 -14 5 -28 10 -31 6 -3 10 5 10 19 0 14 -4 28 -10 31 -6
3 -10 -5 -10 -19z"/>
<path d="M1273 536 c1 -16 9 -32 17 -34 12 -4 13 -2 4 9 -7 8 -14 23 -17 34
-4 13 -5 9 -4 -9z"/>
<path d="M1300 550 c0 -5 5 -10 11 -10 5 0 7 5 4 10 -3 6 -8 10 -11 10 -2 0
-4 -4 -4 -10z"/>
<path d="M1360 536 c0 -14 5 -28 10 -31 6 -4 10 7 10 24 0 17 -4 31 -10 31 -5
0 -10 -11 -10 -24z"/>
<path d="M1450 530 c0 -16 5 -30 10 -30 6 0 10 14 10 30 0 17 -4 30 -10 30 -5
0 -10 -13 -10 -30z"/>
<path d="M1490 530 c0 -16 5 -30 10 -30 6 0 10 14 10 30 0 17 -4 30 -10 30 -5
0 -10 -13 -10 -30z"/>
<path d="M1528 530 c2 -16 6 -30 8 -30 2 0 4 14 4 30 0 17 -4 30 -8 30 -5 0
-7 -13 -4 -30z"/>
<path d="M1566 552 c-2 -4 -1 -14 5 -22 7 -12 9 -10 9 8 0 23 -5 28 -14 14z"/>
<path d="M1601 544 c0 -11 3 -14 6 -6 3 7 2 16 -1 19 -3 4 -6 -2 -5 -13z"/>
<path d="M1786 547 c-9 -18 8 -47 28 -47 8 0 8 2 0 8 -7 4 -14 18 -16 32 -4
21 -6 22 -12 7z"/>
<path d="M1853 536 c1 -16 9 -32 17 -34 12 -4 13 -2 4 9 -7 8 -14 23 -17 34
-4 13 -5 9 -4 -9z"/>
<path d="M1952 530 c0 -19 2 -27 5 -17 2 9 2 25 0 35 -3 9 -5 1 -5 -18z"/>
<path d="M1990 530 c0 -16 5 -30 10 -30 6 0 10 14 10 30 0 17 -4 30 -10 30 -5
0 -10 -13 -10 -30z"/>
<path d="M2032 530 c0 -19 2 -27 5 -17 2 9 2 25 0 35 -3 9 -5 1 -5 -18z"/>
<path d="M2066 543 c-4 -9 -2 -21 4 -27 7 -7 10 -2 10 17 0 31 -5 34 -14 10z"/>
<path d="M2100 536 c0 -14 5 -26 10 -26 6 0 10 9 10 19 0 11 -4 23 -10 26 -6
4 -10 -5 -10 -19z"/>
<path d="M2176 543 c-4 -9 -2 -21 4 -27 7 -7 10 -2 10 17 0 31 -5 34 -14 10z"/>
<path d="M2210 536 c0 -14 5 -26 10 -26 6 0 10 9 10 19 0 11 -4 23 -10 26 -6
4 -10 -5 -10 -19z"/>
<path d="M2246 552 c-2 -4 -1 -14 5 -22 7 -12 9 -10 9 8 0 23 -5 28 -14 14z"/>
<path d="M2281 544 c0 -11 3 -14 6 -6 3 7 2 16 -1 19 -3 4 -6 -2 -5 -13z"/>
<path d="M2320 530 c0 -16 5 -30 10 -30 6 0 10 14 10 30 0 17 -4 30 -10 30 -5
0 -10 -13 -10 -30z"/>
<path d="M2357 552 c-12 -18 2 -52 21 -52 11 0 13 3 6 8 -7 4 -14 18 -16 32
-2 17 -6 21 -11 12z"/>
<path d="M2420 541 c0 -5 7 -14 15 -21 12 -10 15 -10 15 3 0 8 -7 17 -15 21
-8 3 -15 2 -15 -3z"/>
<path d="M980 515 c0 -8 4 -15 10 -15 5 0 7 7 4 15 -4 8 -8 15 -10 15 -2 0 -4
-7 -4 -15z"/>
<path d="M1330 510 c0 -5 5 -10 11 -10 5 0 7 5 4 10 -3 6 -8 10 -11 10 -2 0
-4 -4 -4 -10z"/>
<path d="M1570 502 c0 -5 11 -12 25 -15 16 -3 24 0 22 7 -4 14 -47 21 -47 8z"/>
<path d="M2248 498 c-4 -9 4 -13 23 -13 16 0 28 5 26 10 -5 15 -44 18 -49 3z"/>
<path d="M382 397 c-31 -48 -32 -53 -16 -62 31 -18 64 -57 64 -77 0 -24 -28
-80 -48 -94 -13 -9 -4 -18 48 -48 49 -29 65 -34 71 -24 5 7 9 18 9 24 0 5 13
22 28 37 58 56 122 18 122 -73 0 -51 10 -60 73 -60 22 0 27 4 27 25 0 40 26
92 50 100 28 9 66 -25 77 -70 8 -33 8 -33 40 -20 31 13 32 15 26 67 -3 37 0
59 9 72 20 25 54 13 74 -25 12 -24 18 -28 29 -19 23 19 27 48 10 74 -35 53 1
111 45 71 16 -15 18 -15 24 0 11 30 6 51 -18 84 l-25 33 -14 -29 c-9 -15 -28
-40 -44 -54 -136 -127 -366 -96 -570 77 -28 24 -53 44 -55 43 -1 0 -18 -23
-36 -52z"/>
<path d="M876 335 c-11 -8 -15 -15 -10 -15 6 0 19 7 30 15 10 8 15 14 9 14 -5
0 -19 -6 -29 -14z"/>
</g>
</svg>
